<svg width="338" height="410" viewBox="0 0 338 410" fill="none" xmlns="http://www.w3.org/2000/svg">
<mask id="path-1-inside-1_134_3" fill="white">
<path fill-rule="evenodd" clip-rule="evenodd" d="M309.884 96.2596L297.743 97.7001L297.743 97.7051C297.588 97.7202 297.432 97.7371 297.276 97.7556C286.349 99.0519 280.117 119.391 281.347 143.223C281.553 147.204 285.683 149.617 289.36 148.078L304.361 141.8L319.58 134.078C321.825 132.939 323.137 130.507 322.743 128.02C320.523 114.028 316.085 105.562 310.474 101.233L309.884 96.2596Z"/>
</mask>
<path fill-rule="evenodd" clip-rule="evenodd" d="M309.884 96.2596L297.743 97.7001L297.743 97.7051C297.588 97.7202 297.432 97.7371 297.276 97.7556C286.349 99.0519 280.117 119.391 281.347 143.223C281.553 147.204 285.683 149.617 289.36 148.078L304.361 141.8L319.58 134.078C321.825 132.939 323.137 130.507 322.743 128.02C320.523 114.028 316.085 105.562 310.474 101.233L309.884 96.2596Z" fill="#FF2480"/>
<path d="M297.743 97.7001L297.625 96.7071L296.632 96.8249L296.75 97.818L297.743 97.7001ZM309.884 96.2596L310.877 96.1418L310.76 95.1488L309.767 95.2666L309.884 96.2596ZM297.743 97.7051L297.84 98.7004L298.857 98.6017L298.736 97.5873L297.743 97.7051ZM281.347 143.223L282.346 143.171L281.347 143.223ZM289.36 148.078L289.746 149.001L289.746 149.001L289.36 148.078ZM304.361 141.8L304.747 142.722L304.78 142.708L304.813 142.692L304.361 141.8ZM319.58 134.078L319.128 133.186L319.128 133.186L319.58 134.078ZM322.743 128.02L323.73 127.864L323.73 127.864L322.743 128.02ZM310.474 101.233L309.481 101.351L309.531 101.769L309.864 102.025L310.474 101.233ZM297.86 98.6932L310.002 97.2527L309.767 95.2666L297.625 96.7071L297.86 98.6932ZM298.736 97.5873L298.736 97.5823L296.75 97.818L296.75 97.8229L298.736 97.5873ZM297.393 98.7486C297.543 98.7309 297.691 98.7149 297.84 98.7004L297.646 96.7098C297.484 96.7256 297.321 96.7432 297.158 96.7625L297.393 98.7486ZM282.346 143.171C281.735 131.342 282.981 120.432 285.7 112.357C288.451 104.188 292.556 99.3225 297.393 98.7486L297.158 96.7625C291.068 97.485 286.594 103.437 283.805 111.719C280.984 120.096 279.729 131.272 280.349 143.275L282.346 143.171ZM288.974 147.156C285.888 148.447 282.513 146.41 282.346 143.171L280.349 143.275C280.592 147.998 285.478 150.787 289.746 149.001L288.974 147.156ZM303.974 140.877L288.974 147.156L289.746 149.001L304.747 142.722L303.974 140.877ZM319.128 133.186L303.908 140.908L304.813 142.692L320.033 134.97L319.128 133.186ZM321.755 128.177C322.078 130.213 321.005 132.234 319.128 133.186L320.033 134.97C322.645 133.644 324.196 130.8 323.73 127.864L321.755 128.177ZM309.864 102.025C315.179 106.126 319.552 114.29 321.755 128.177L323.73 127.864C321.494 113.766 316.991 104.998 311.085 100.442L309.864 102.025ZM308.891 96.3775L309.481 101.351L311.468 101.116L310.877 96.1418L308.891 96.3775Z" fill="black" mask="url(#path-1-inside-1_134_3)"/>
<mask id="path-3-inside-2_134_3" fill="white">
<path fill-rule="evenodd" clip-rule="evenodd" d="M282.33 98.1887L266.864 100.024L266.865 100.03C266.666 100.049 266.468 100.071 266.269 100.094C252.019 101.785 244.038 128.899 246.107 160.184C246.37 164.162 250.5 166.576 254.177 165.037L275.294 156.199L295.704 145.843C297.949 144.704 299.256 142.269 298.884 139.78C296.119 121.278 290.379 110.154 283.082 104.525L282.33 98.1887Z"/>
</mask>
<path fill-rule="evenodd" clip-rule="evenodd" d="M282.33 98.1887L266.864 100.024L266.865 100.03C266.666 100.049 266.468 100.071 266.269 100.094C252.019 101.785 244.038 128.899 246.107 160.184C246.37 164.162 250.5 166.576 254.177 165.037L275.294 156.199L295.704 145.843C297.949 144.704 299.256 142.269 298.884 139.78C296.119 121.278 290.379 110.154 283.082 104.525L282.33 98.1887Z" fill="#FF2480"/>
<path d="M266.864 100.024L266.746 99.0306L265.753 99.1484L265.871 100.141L266.864 100.024ZM282.33 98.1887L283.323 98.0709L283.206 97.0779L282.213 97.1957L282.33 98.1887ZM266.865 100.03L266.961 101.025L267.978 100.927L267.858 99.9122L266.865 100.03ZM246.107 160.184L247.105 160.118L247.105 160.118L246.107 160.184ZM254.177 165.037L253.791 164.115L253.791 164.115L254.177 165.037ZM275.294 156.199L275.68 157.121L275.714 157.107L275.746 157.091L275.294 156.199ZM295.704 145.843L296.157 146.735L296.157 146.735L295.704 145.843ZM298.884 139.78L297.895 139.928L297.895 139.928L298.884 139.78ZM283.082 104.525L282.089 104.642L282.139 105.06L282.471 105.316L283.082 104.525ZM266.982 101.017L282.448 99.1818L282.213 97.1957L266.746 99.0306L266.982 101.017ZM267.858 99.9122L267.857 99.9059L265.871 100.141L265.872 100.148L267.858 99.9122ZM266.387 101.087C266.579 101.065 266.77 101.044 266.961 101.025L266.768 99.0347C266.563 99.0547 266.357 99.0768 266.151 99.1013L266.387 101.087ZM247.105 160.118C246.076 144.565 247.551 130.098 251.02 119.349C252.755 113.973 254.973 109.575 257.585 106.437C260.191 103.305 263.147 101.472 266.387 101.087L266.151 99.1013C262.266 99.5622 258.881 101.752 256.047 105.157C253.219 108.556 250.9 113.21 249.117 118.734C245.55 129.786 244.069 144.519 245.109 160.25L247.105 160.118ZM253.791 164.115C250.71 165.404 247.32 163.373 247.105 160.118L245.109 160.25C245.42 164.951 250.289 167.749 254.563 165.96L253.791 164.115ZM274.908 155.276L253.791 164.115L254.563 165.96L275.68 157.121L274.908 155.276ZM295.252 144.951L274.841 155.307L275.746 157.091L296.157 146.735L295.252 144.951ZM297.895 139.928C298.201 141.976 297.126 144 295.252 144.951L296.157 146.735C298.772 145.408 300.311 142.563 299.873 139.632L297.895 139.928ZM282.471 105.316C289.467 110.714 295.145 121.529 297.895 139.928L299.873 139.632C297.092 121.028 291.29 109.594 283.693 103.733L282.471 105.316ZM281.337 98.3065L282.089 104.642L284.075 104.407L283.323 98.0709L281.337 98.3065Z" fill="black" mask="url(#path-3-inside-2_134_3)"/>
<mask id="path-5-inside-3_134_3" fill="white">
<path fill-rule="evenodd" clip-rule="evenodd" d="M249.356 126.218L237.214 127.659L237.215 127.664C237.059 127.679 236.903 127.696 236.747 127.714C225.82 129.01 219.588 149.349 220.819 173.182C221.024 177.162 225.154 179.576 228.831 178.037L243.832 171.758L259.051 164.036C261.296 162.897 262.609 160.465 262.214 157.979C259.994 143.986 255.556 135.52 249.946 131.192L249.356 126.218Z"/>
</mask>
<path fill-rule="evenodd" clip-rule="evenodd" d="M249.356 126.218L237.214 127.659L237.215 127.664C237.059 127.679 236.903 127.696 236.747 127.714C225.82 129.01 219.588 149.349 220.819 173.182C221.024 177.162 225.154 179.576 228.831 178.037L243.832 171.758L259.051 164.036C261.296 162.897 262.609 160.465 262.214 157.979C259.994 143.986 255.556 135.52 249.946 131.192L249.356 126.218Z" fill="#FF2480"/>
<path d="M237.214 127.659L237.096 126.666L236.103 126.783L236.221 127.776L237.214 127.659ZM249.356 126.218L250.349 126.1L250.231 125.107L249.238 125.225L249.356 126.218ZM237.215 127.664L237.311 128.659L238.328 128.56L238.208 127.546L237.215 127.664ZM220.819 173.182L221.817 173.13L220.819 173.182ZM228.831 178.037L228.445 177.114L228.445 177.114L228.831 178.037ZM243.832 171.758L244.218 172.681L244.252 172.667L244.284 172.65L243.832 171.758ZM259.051 164.036L258.599 163.145L258.599 163.145L259.051 164.036ZM262.214 157.979L263.202 157.822L263.202 157.822L262.214 157.979ZM249.946 131.192L248.953 131.31L249.002 131.727L249.335 131.984L249.946 131.192ZM237.332 128.652L249.474 127.211L249.238 125.225L237.096 126.666L237.332 128.652ZM238.208 127.546L238.207 127.541L236.221 127.776L236.222 127.781L238.208 127.546ZM236.865 128.707C237.014 128.689 237.163 128.673 237.311 128.659L237.118 126.668C236.955 126.684 236.792 126.702 236.629 126.721L236.865 128.707ZM221.817 173.13C221.207 161.301 222.453 150.39 225.172 142.316C227.923 134.146 232.028 129.281 236.865 128.707L236.629 126.721C230.54 127.443 226.065 133.396 223.276 141.678C220.455 150.055 219.2 161.23 219.82 173.233L221.817 173.13ZM228.445 177.114C225.359 178.406 221.984 176.369 221.817 173.13L219.82 173.233C220.064 177.956 224.949 180.746 229.218 178.959L228.445 177.114ZM243.446 170.836L228.445 177.114L229.218 178.959L244.218 172.681L243.446 170.836ZM258.599 163.145L243.379 170.867L244.284 172.65L259.504 164.928L258.599 163.145ZM261.226 158.136C261.55 160.172 260.476 162.192 258.599 163.145L259.504 164.928C262.116 163.603 263.668 160.758 263.202 157.822L261.226 158.136ZM249.335 131.984C254.65 136.085 259.023 144.248 261.226 158.136L263.202 157.822C260.965 143.725 256.462 134.956 250.557 130.4L249.335 131.984ZM248.363 126.336L248.953 131.31L250.939 131.074L250.349 126.1L248.363 126.336Z" fill="black" mask="url(#path-5-inside-3_134_3)"/>
<mask id="path-7-inside-4_134_3" fill="white">
<path fill-rule="evenodd" clip-rule="evenodd" d="M289.101 150.294L307.012 140.955L315.199 137.164L329.824 129.539C332.034 128.387 333.32 125.972 332.926 123.51C329.157 99.9873 319.031 95.1744 307.55 96.5365C303.973 96.961 300.822 99.2737 298.24 103.019C292.777 98.6557 286.259 97.7226 279.357 98.5415C269.778 99.6779 262.601 111.442 259.509 128.446C255.748 126.37 251.487 125.965 247.022 126.495C236.152 127.785 229.222 146.508 230.223 169.888C230.397 173.964 234.693 176.373 238.395 174.659L254.671 167.123L269.295 159.498C269.41 159.438 269.521 159.375 269.631 159.309L289.101 150.294Z"/>
</mask>
<path fill-rule="evenodd" clip-rule="evenodd" d="M289.101 150.294L307.012 140.955L315.199 137.164L329.824 129.539C332.034 128.387 333.32 125.972 332.926 123.51C329.157 99.9873 319.031 95.1744 307.55 96.5365C303.973 96.961 300.822 99.2737 298.24 103.019C292.777 98.6557 286.259 97.7226 279.357 98.5415C269.778 99.6779 262.601 111.442 259.509 128.446C255.748 126.37 251.487 125.965 247.022 126.495C236.152 127.785 229.222 146.508 230.223 169.888C230.397 173.964 234.693 176.373 238.395 174.659L254.671 167.123L269.295 159.498C269.41 159.438 269.521 159.375 269.631 159.309L289.101 150.294Z" fill="white"/>
<path d="M307.012 140.955L306.592 140.048L306.57 140.058L306.55 140.068L307.012 140.955ZM289.101 150.294L289.521 151.201L289.542 151.192L289.563 151.181L289.101 150.294ZM315.199 137.164L315.62 138.072L315.641 138.062L315.662 138.051L315.199 137.164ZM329.824 129.539L329.361 128.652L329.361 128.652L329.824 129.539ZM332.926 123.51L333.913 123.352L333.913 123.352L332.926 123.51ZM298.24 103.019L297.616 103.801L298.455 104.47L299.064 103.587L298.24 103.019ZM259.509 128.446L259.026 129.321L260.244 129.994L260.493 128.625L259.509 128.446ZM230.223 169.888L231.222 169.845L231.222 169.845L230.223 169.888ZM238.395 174.659L237.975 173.751L237.975 173.751L238.395 174.659ZM254.671 167.123L255.091 168.03L255.112 168.02L255.133 168.009L254.671 167.123ZM269.295 159.498L269.758 160.384L269.758 160.384L269.295 159.498ZM269.631 159.309L269.21 158.401L269.16 158.425L269.112 158.453L269.631 159.309ZM306.55 140.068L288.638 149.407L289.563 151.181L307.474 141.842L306.55 140.068ZM314.779 136.257L306.592 140.048L307.432 141.863L315.62 138.072L314.779 136.257ZM329.361 128.652L314.737 136.278L315.662 138.051L330.286 130.426L329.361 128.652ZM331.938 123.669C332.261 125.683 331.21 127.688 329.361 128.652L330.286 130.426C332.858 129.085 334.379 126.26 333.913 123.352L331.938 123.669ZM307.668 97.5296C313.235 96.8691 318.311 97.7187 322.463 101.436C326.654 105.188 330.07 112.006 331.938 123.669L333.913 123.352C332.013 111.492 328.482 104.141 323.797 99.9465C319.074 95.7176 313.346 94.8419 307.432 95.5435L307.668 97.5296ZM299.064 103.587C301.547 99.9843 304.472 97.9087 307.668 97.5296L307.432 95.5435C303.473 96.0132 300.097 98.5631 297.417 102.452L299.064 103.587ZM279.475 99.5345C286.217 98.7346 292.432 99.6604 297.616 103.801L298.864 102.238C293.121 97.6511 286.302 96.7106 279.239 97.5485L279.475 99.5345ZM260.493 128.625C262.024 120.204 264.556 113.15 267.84 108.088C271.125 103.022 275.087 100.055 279.475 99.5345L279.239 97.5485C274.048 98.1643 269.632 101.648 266.162 106.999C262.689 112.354 260.086 119.684 258.525 128.267L260.493 128.625ZM247.139 127.488C251.478 126.973 255.508 127.379 259.026 129.321L259.993 127.57C255.988 125.36 251.497 124.957 246.904 125.502L247.139 127.488ZM231.222 169.845C230.725 158.251 232.2 147.868 235.105 140.264C238.035 132.594 242.281 128.064 247.139 127.488L246.904 125.502C240.892 126.215 236.239 131.692 233.236 139.551C230.209 147.475 228.719 158.145 229.223 169.931L231.222 169.845ZM237.975 173.751C234.865 175.191 231.363 173.151 231.222 169.845L229.223 169.931C229.431 174.777 234.521 177.554 238.815 175.566L237.975 173.751ZM254.251 166.215L237.975 173.751L238.815 175.566L255.091 168.03L254.251 166.215ZM268.833 158.611L254.209 166.236L255.133 168.009L269.758 160.384L268.833 158.611ZM269.112 158.453C269.021 158.509 268.928 158.561 268.833 158.611L269.758 160.384C269.891 160.315 270.021 160.241 270.149 160.164L269.112 158.453ZM288.681 149.387L269.21 158.401L270.051 160.216L289.521 151.201L288.681 149.387Z" fill="black" mask="url(#path-7-inside-4_134_3)"/>
<path d="M53.9696 245.537L229.155 110.029C231.709 108.054 235.45 109.331 236.264 112.455L275.685 263.931C276.139 265.675 275.509 267.522 274.083 268.624L98.8975 404.132C96.3439 406.107 92.6025 404.83 91.7893 401.706L52.3679 250.23C51.9141 248.486 52.5443 246.639 53.9696 245.537Z" fill="black" stroke="black"/>
<path d="M45.0535 226.886C44.4164 224.536 45.2635 222.033 47.1974 220.552L119.296 165.36C122.797 162.679 127.897 164.565 128.813 168.878L137.335 209.022C137.806 211.238 136.988 213.53 135.221 214.948L65.6486 270.765C62.2755 273.471 57.234 271.828 56.1028 267.654L45.0535 226.886Z" fill="black"/>
<path d="M214.734 260.661L91.7341 354.739C88.7731 357.004 84.5002 354.893 84.5002 351.165V157.482C84.5002 156.08 85.1531 154.759 86.2663 153.907L150.804 104.545L184.054 79.113L200.371 66.6327L216.5 79.3112V104.852V156.421V257.086C216.5 258.488 215.847 259.809 214.734 260.661Z" fill="black" stroke="black"/>
<path d="M227.734 259.377L104.734 353.455C101.773 355.72 97.5002 353.609 97.5002 349.881V156.198C97.5002 154.796 98.1531 153.475 99.2663 152.623L163.804 103.261L197.054 77.8289L213.371 65.3486L229.5 78.027V103.568V155.136V255.802C229.5 257.204 228.847 258.525 227.734 259.377Z" fill="white" stroke="black"/>
<path d="M111.723 176.752L204.651 107.78C206.656 106.292 209.5 107.723 209.5 110.22C209.5 111.181 209.045 112.086 208.273 112.659L115.345 181.631C113.34 183.119 110.495 181.688 110.495 179.192C110.495 178.23 110.951 177.325 111.723 176.752Z" stroke="black"/>
<path d="M111.756 209.749L162.635 172.711C164.659 171.238 167.5 172.683 167.5 175.187C167.5 176.166 167.032 177.086 166.24 177.663L115.36 214.7C113.336 216.174 110.495 214.728 110.495 212.225C110.495 211.245 110.964 210.325 111.756 209.749Z" stroke="black"/>
<mask id="path-15-inside-5_134_3" fill="white">
<path fill-rule="evenodd" clip-rule="evenodd" d="M95.0729 294.012C94.3624 292.94 93.9859 291.608 94.1342 290.121L98.7326 244.042C98.8963 242.401 99.7281 240.9 101.032 239.891L168.804 187.479C172.969 184.258 178.968 187.581 178.445 192.821L176.945 207.848L274.56 132.911C278.061 130.223 283.072 133.058 282.573 137.442L267.723 267.838C267.573 269.157 266.905 270.361 265.867 271.187L98.5819 404.178C95.2263 406.845 90.2894 404.33 90.4751 400.047L95.0729 294.012Z"/>
</mask>
<path fill-rule="evenodd" clip-rule="evenodd" d="M95.0729 294.012C94.3624 292.94 93.9859 291.608 94.1342 290.121L98.7326 244.042C98.8963 242.401 99.7281 240.9 101.032 239.891L168.804 187.479C172.969 184.258 178.968 187.581 178.445 192.821L176.945 207.848L274.56 132.911C278.061 130.223 283.072 133.058 282.573 137.442L267.723 267.838C267.573 269.157 266.905 270.361 265.867 271.187L98.5819 404.178C95.2263 406.845 90.2894 404.33 90.4751 400.047L95.0729 294.012Z" fill="black"/>
<path d="M95.0729 294.012L96.0719 294.056L96.086 293.731L95.9065 293.46L95.0729 294.012ZM94.1342 290.121L93.1392 290.022L93.1392 290.022L94.1342 290.121ZM98.7326 244.042L97.7375 243.942L97.7375 243.942L98.7326 244.042ZM101.032 239.891L101.644 240.682L101.644 240.682L101.032 239.891ZM168.804 187.479L168.192 186.688L168.192 186.688L168.804 187.479ZM178.445 192.821L179.44 192.92L179.44 192.92L178.445 192.821ZM176.945 207.848L175.95 207.749L175.72 210.049L177.554 208.641L176.945 207.848ZM274.56 132.911L275.169 133.704L275.169 133.704L274.56 132.911ZM282.573 137.442L283.566 137.556L283.566 137.556L282.573 137.442ZM267.723 267.838L266.73 267.725L266.73 267.725L267.723 267.838ZM265.867 271.187L265.245 270.404L265.245 270.404L265.867 271.187ZM98.5819 404.178L97.9596 403.395L97.9596 403.395L98.5819 404.178ZM90.4751 400.047L91.4742 400.09L91.4742 400.09L90.4751 400.047ZM95.9065 293.46C95.3203 292.575 95.0044 291.472 95.1293 290.221L93.1392 290.022C92.9674 291.743 93.4044 293.305 94.2393 294.565L95.9065 293.46ZM95.1293 290.221L99.7277 244.141L97.7375 243.942L93.1392 290.022L95.1293 290.221ZM99.7277 244.141C99.8641 242.774 100.557 241.523 101.644 240.682L100.421 239.1C98.8989 240.277 97.9286 242.028 97.7375 243.942L99.7277 244.141ZM101.644 240.682L169.415 188.27L168.192 186.688L100.421 239.1L101.644 240.682ZM169.415 188.27C172.887 185.586 177.885 188.355 177.45 192.722L179.44 192.92C180.05 186.807 173.052 182.93 168.192 186.688L169.415 188.27ZM177.45 192.722L175.95 207.749L177.94 207.947L179.44 192.92L177.45 192.722ZM177.554 208.641L275.169 133.704L273.951 132.117L176.336 207.055L177.554 208.641ZM275.169 133.704C277.969 131.554 281.979 133.822 281.579 137.329L283.566 137.556C284.165 132.294 278.152 128.893 273.951 132.117L275.169 133.704ZM281.579 137.329L266.73 267.725L268.717 267.952L283.566 137.556L281.579 137.329ZM266.73 267.725C266.61 268.78 266.075 269.743 265.245 270.404L266.489 271.969C267.735 270.979 268.537 269.533 268.717 267.952L266.73 267.725ZM265.245 270.404L97.9596 403.395L99.2043 404.96L266.489 271.969L265.245 270.404ZM97.9596 403.395C95.2752 405.529 91.3256 403.517 91.4742 400.09L89.4761 400.004C89.2532 405.143 95.1775 408.162 99.2043 404.96L97.9596 403.395ZM91.4742 400.09L96.0719 294.056L94.0738 293.969L89.4761 400.004L91.4742 400.09Z" fill="black" mask="url(#path-15-inside-5_134_3)"/>
<mask id="path-17-inside-6_134_3" fill="white">
<path fill-rule="evenodd" clip-rule="evenodd" d="M106.572 270.812C106.369 271.271 106.235 271.761 106.177 272.269L91.3331 402.616C90.8338 407 95.8452 409.835 99.3457 407.148L276.104 271.453C277.18 270.627 277.874 269.4 278.027 268.053L292.871 137.706C293.37 133.322 288.359 130.487 284.858 133.175L187.445 207.957L188.956 192.821C189.479 187.581 183.48 184.258 179.315 187.479L111.543 239.891C110.239 240.9 109.407 242.401 109.244 244.042L106.572 270.812Z"/>
</mask>
<path fill-rule="evenodd" clip-rule="evenodd" d="M106.572 270.812C106.369 271.271 106.235 271.761 106.177 272.269L91.3331 402.616C90.8338 407 95.8452 409.835 99.3457 407.148L276.104 271.453C277.18 270.627 277.874 269.4 278.027 268.053L292.871 137.706C293.37 133.322 288.359 130.487 284.858 133.175L187.445 207.957L188.956 192.821C189.479 187.581 183.48 184.258 179.315 187.479L111.543 239.891C110.239 240.9 109.407 242.401 109.244 244.042L106.572 270.812Z" fill="#FF2480"/>
<path d="M106.177 272.269L105.183 272.156L105.183 272.156L106.177 272.269ZM106.572 270.812L107.487 271.217L107.551 271.07L107.567 270.911L106.572 270.812ZM91.3331 402.616L90.3395 402.503L90.3395 402.503L91.3331 402.616ZM99.3457 407.148L99.9546 407.941L99.9546 407.941L99.3457 407.148ZM276.104 271.453L276.713 272.246L276.713 272.246L276.104 271.453ZM278.027 268.053L277.034 267.94L277.034 267.94L278.027 268.053ZM292.871 137.706L291.877 137.593L291.877 137.593L292.871 137.706ZM284.858 133.175L285.467 133.968L285.467 133.968L284.858 133.175ZM187.445 207.957L186.45 207.858L186.221 210.158L188.054 208.75L187.445 207.957ZM188.956 192.821L189.951 192.92L189.951 192.92L188.956 192.821ZM179.315 187.479L179.927 188.27L179.927 188.27L179.315 187.479ZM111.543 239.891L112.155 240.682L112.155 240.682L111.543 239.891ZM109.244 244.042L108.249 243.942L108.249 243.942L109.244 244.042ZM107.17 272.382C107.217 271.976 107.324 271.584 107.487 271.217L105.658 270.407C105.414 270.958 105.253 271.547 105.183 272.156L107.17 272.382ZM92.3267 402.729L107.17 272.382L105.183 272.156L90.3395 402.503L92.3267 402.729ZM98.7367 406.354C95.9364 408.504 91.9272 406.237 92.3267 402.729L90.3395 402.503C89.7403 407.764 95.7541 411.166 99.9546 407.941L98.7367 406.354ZM275.495 270.66L98.7367 406.354L99.9546 407.941L276.713 272.246L275.495 270.66ZM277.034 267.94C276.911 269.018 276.356 269.999 275.495 270.66L276.713 272.246C278.004 271.255 278.837 269.783 279.021 268.166L277.034 267.94ZM291.877 137.593L277.034 267.94L279.021 268.166L293.865 137.819L291.877 137.593ZM285.467 133.968C288.268 131.818 292.277 134.085 291.877 137.593L293.865 137.819C294.464 132.558 288.45 129.157 284.25 132.381L285.467 133.968ZM188.054 208.75L285.467 133.968L284.25 132.381L186.836 207.164L188.054 208.75ZM187.961 192.722L186.45 207.858L188.44 208.056L189.951 192.92L187.961 192.722ZM179.927 188.27C183.398 185.586 188.396 188.355 187.961 192.722L189.951 192.92C190.561 186.807 183.563 182.93 178.703 186.688L179.927 188.27ZM112.155 240.682L179.927 188.27L178.703 186.688L110.932 239.1L112.155 240.682ZM110.239 244.141C110.375 242.774 111.068 241.523 112.155 240.682L110.932 239.1C109.41 240.277 108.44 242.028 108.249 243.942L110.239 244.141ZM107.567 270.911L110.239 244.141L108.249 243.942L105.577 270.713L107.567 270.911Z" fill="black" mask="url(#path-17-inside-6_134_3)"/>
<path d="M111.689 351.569L173.171 304.863C175.152 303.358 178 304.771 178 307.259C178 308.2 177.56 309.086 176.811 309.655L115.329 356.361C113.348 357.866 110.5 356.453 110.5 353.965C110.5 353.024 110.94 352.138 111.689 351.569Z" stroke="black"/>
<path d="M187.651 294.574L209.693 277.445C211.65 275.924 214.5 277.319 214.5 279.797C214.5 280.717 214.075 281.585 213.349 282.15L191.307 299.279C189.35 300.8 186.5 299.405 186.5 296.927C186.5 296.007 186.925 295.139 187.651 294.574Z" stroke="black"/>
<path d="M213 87.5V67.0236C213 66.1952 213.95 65.726 214.608 66.2292L228.791 77.0753C229.362 77.5123 229.299 78.3917 228.671 78.7426L213 87.5Z" fill="black" stroke="black"/>
<path fill-rule="evenodd" clip-rule="evenodd" d="M282.504 290.123C280.737 291.889 277.874 291.889 276.108 290.123L247.325 261.34C245.558 259.573 245.558 256.71 247.325 254.944C249.091 253.177 251.955 253.177 253.721 254.944L274.783 276.005L274.783 204.61C274.783 202.112 276.808 200.087 279.306 200.087C281.803 200.087 283.828 202.112 283.828 204.61L283.828 276.005L304.89 254.943C306.657 253.177 309.52 253.177 311.287 254.943C313.053 256.71 313.053 259.573 311.287 261.34L282.504 290.123Z" fill="black" stroke="black"/>
<path fill-rule="evenodd" clip-rule="evenodd" d="M291.228 290.123C289.462 291.889 281.492 291.889 279.726 290.123L250.943 261.34C249.177 259.574 249.177 256.71 250.943 254.944C254.24 251.647 260.063 253.177 261.83 254.944L278.401 276.006L278.401 204.61C278.401 202.112 280.426 200.087 282.924 200.087C285.422 200.087 291.68 199.398 291.68 201.896L287.447 240.308L287.447 276.006L311.128 253.456C313.842 251.194 318.407 253.046 320.174 254.813C321.94 256.579 320.131 260.283 318.365 262.049L291.228 290.123Z" fill="#FF2480" stroke="black"/>
<path fill-rule="evenodd" clip-rule="evenodd" d="M291.713 290.123C289.946 291.889 287.083 291.889 285.316 290.123L256.534 261.34C254.767 259.573 254.767 256.71 256.534 254.944C258.3 253.177 261.163 253.177 262.93 254.944L283.992 276.005L283.992 204.61C283.992 202.112 286.017 200.087 288.514 200.087C291.012 200.087 293.037 202.112 293.037 204.61L293.037 276.005L314.099 254.944C315.865 253.177 318.729 253.177 320.495 254.944C322.262 256.71 322.262 259.573 320.495 261.34L291.713 290.123Z" fill="white" stroke="black"/>
<g style="mix-blend-mode:darken">
<path fill-rule="evenodd" clip-rule="evenodd" d="M283.807 241.817L292.972 251.555V259.436L282.539 249.002L283.807 241.817ZM281.81 253.134L278.651 271.031L262.039 253.846H259.175L254.02 255.565L256.311 260.147L286.098 291.08H290.108L303.283 278.478L292.972 269.313V264.296L281.81 253.134Z" fill="#FF2480"/>
</g>
<path fill-rule="evenodd" clip-rule="evenodd" d="M45.3553 227.632C43.4027 229.584 40.2369 229.584 38.2843 227.632L6.46448 195.812C4.51186 193.859 4.51186 190.693 6.46448 188.741C8.4171 186.788 11.5829 186.788 13.5355 188.741L36.8198 212.025L36.8198 133.096C36.8198 130.335 39.0584 128.096 41.8198 128.096C44.5812 128.096 46.8198 130.335 46.8198 133.096L46.8198 212.025L70.1041 188.741C72.0567 186.788 75.2225 186.788 77.1751 188.741C79.1277 190.693 79.1277 193.859 77.1751 195.812L45.3553 227.632Z" fill="black" stroke="black"/>
<path fill-rule="evenodd" clip-rule="evenodd" d="M55 227.632C53.0473 229.584 44.2371 229.584 42.2845 227.632L10.4647 195.812C8.51211 193.859 8.51211 190.694 10.4647 188.741C14.1095 185.096 20.5474 186.788 22.5 188.741L40.82 212.025L40.82 133.096C40.82 130.335 43.0586 128.096 45.82 128.096C48.5815 128.096 55.5 127.335 55.5 130.096L50.82 172.561L50.82 212.025L77 187.096C80 184.596 85.0474 186.643 87 188.596C88.9526 190.549 86.9526 194.643 85 196.596L55 227.632Z" fill="#FF2480" stroke="black"/>
<path fill-rule="evenodd" clip-rule="evenodd" d="M55.5358 227.632C53.5832 229.584 50.4174 229.584 48.4648 227.632L16.645 195.812C14.6923 193.859 14.6923 190.693 16.645 188.741C18.5976 186.788 21.7634 186.788 23.716 188.741L47.0003 212.025L47.0003 133.096C47.0003 130.335 49.2389 128.096 52.0003 128.096C54.7617 128.096 57.0003 130.335 57.0003 133.096L57.0003 212.025L80.2845 188.741C82.2372 186.788 85.403 186.788 87.3556 188.741C89.3082 190.693 89.3082 193.859 87.3556 195.812L55.5358 227.632Z" fill="white" stroke="black"/>
<g style="mix-blend-mode:darken">
<path fill-rule="evenodd" clip-rule="evenodd" d="M46.7961 174.229L56.9285 184.995V193.707L45.3943 182.173L46.7961 174.229ZM44.5883 186.74L41.0966 206.526L22.7317 187.528H19.5653L13.8658 189.428L16.3989 194.494L49.3292 228.691H53.7621L68.3274 214.759L56.9285 204.626V199.08L44.5883 186.74Z" fill="#FF2480"/>
</g>
<path fill-rule="evenodd" clip-rule="evenodd" d="M253.938 74.9135C252.49 76.3621 250.141 76.3621 248.693 74.9135L225.086 51.3074C223.638 49.8588 223.638 47.5102 225.086 46.0616C226.535 44.613 228.884 44.613 230.332 46.0616L247.606 63.3355L247.606 4.78068C247.606 2.73207 249.267 1.07134 251.315 1.07134C253.364 1.07135 255.025 2.73207 255.025 4.78068L255.025 63.3355L272.299 46.0616C273.747 44.613 276.096 44.613 277.544 46.0616C278.993 47.5102 278.993 49.8588 277.544 51.3074L253.938 74.9135Z" fill="black" stroke="black"/>
<path fill-rule="evenodd" clip-rule="evenodd" d="M261.093 74.9136C259.645 76.3621 253.109 76.3621 251.66 74.9136L228.054 51.3075C226.605 49.8589 226.605 47.5103 228.054 46.0617C230.758 43.3578 235.534 44.6131 236.983 46.0617L250.574 63.3355L250.574 4.78074C250.574 2.73213 252.234 1.0714 254.283 1.0714C256.332 1.0714 261.464 0.506437 261.464 2.55504L257.992 34.0581L257.992 63.3355L277.414 44.8415C279.64 42.9868 283.385 44.5057 284.833 45.9543C286.282 47.4029 284.798 50.4406 283.349 51.8892L261.093 74.9136Z" fill="#FF2480" stroke="black"/>
<path fill-rule="evenodd" clip-rule="evenodd" d="M261.491 74.9135C260.042 76.3621 257.694 76.3621 256.245 74.9135L232.639 51.3075C231.191 49.8589 231.191 47.5102 232.639 46.0617C234.088 44.6131 236.436 44.6131 237.885 46.0617L255.159 63.3355L255.159 4.78071C255.159 2.7321 256.819 1.07138 258.868 1.07138C260.917 1.07138 262.577 2.7321 262.577 4.78071L262.577 63.3355L279.851 46.0617C281.3 44.6131 283.648 44.6131 285.097 46.0617C286.546 47.5102 286.546 49.8589 285.097 51.3075L261.491 74.9135Z" fill="white" stroke="black"/>
<g style="mix-blend-mode:darken">
<path fill-rule="evenodd" clip-rule="evenodd" d="M255.007 35.2958L262.524 43.2825V49.7458L253.967 41.1889L255.007 35.2958ZM253.369 44.5774L250.779 59.2559L237.155 45.1618H234.806L230.577 46.5712L232.456 50.3296L256.886 75.6991H260.175L270.981 65.3634L262.524 57.8465V53.7322L253.369 44.5774Z" fill="#FF2480"/>
</g>
<mask id="path-34-inside-7_134_3" fill="white">
<path fill-rule="evenodd" clip-rule="evenodd" d="M65.4457 296.455L57.2295 297.43L57.2298 297.434C57.1245 297.444 57.0191 297.455 56.9134 297.468C49.9158 298.298 45.7635 310.67 46.0443 325.664C46.1189 329.649 50.2523 332.067 53.9295 330.527L61.7078 327.272L70.7984 322.66C73.0431 321.521 74.3674 319.088 73.9204 316.611C72.3546 307.936 69.4593 302.61 65.845 299.821L65.4457 296.455Z"/>
</mask>
<path fill-rule="evenodd" clip-rule="evenodd" d="M65.4457 296.455L57.2295 297.43L57.2298 297.434C57.1245 297.444 57.0191 297.455 56.9134 297.468C49.9158 298.298 45.7635 310.67 46.0443 325.664C46.1189 329.649 50.2523 332.067 53.9295 330.527L61.7078 327.272L70.7984 322.66C73.0431 321.521 74.3674 319.088 73.9204 316.611C72.3546 307.936 69.4593 302.61 65.845 299.821L65.4457 296.455Z" fill="#FF2480"/>
<path d="M57.2295 297.43L57.1116 296.437L56.1186 296.555L56.2364 297.548L57.2295 297.43ZM65.4457 296.455L66.4387 296.338L66.3209 295.345L65.3279 295.462L65.4457 296.455ZM57.2298 297.434L57.3265 298.429L58.3432 298.33L58.2229 297.316L57.2298 297.434ZM46.0443 325.664L45.0444 325.683L46.0443 325.664ZM53.9295 330.527L54.3155 331.45L54.3155 331.45L53.9295 330.527ZM61.7078 327.272L62.0939 328.194L62.1276 328.18L62.1603 328.164L61.7078 327.272ZM70.7984 322.66L71.2509 323.551L71.2509 323.551L70.7984 322.66ZM73.9204 316.611L74.9045 316.433L74.9045 316.433L73.9204 316.611ZM65.845 299.821L64.852 299.939L64.9015 300.356L65.2342 300.613L65.845 299.821ZM57.3473 298.423L65.5635 297.448L65.3279 295.462L57.1116 296.437L57.3473 298.423ZM58.2229 297.316L58.2225 297.312L56.2364 297.548L56.2368 297.551L58.2229 297.316ZM57.0313 298.461C57.1299 298.449 57.2283 298.438 57.3265 298.429L57.1332 296.438C57.0208 296.449 56.9082 296.461 56.7956 296.475L57.0313 298.461ZM47.0441 325.645C46.9053 318.231 47.8655 311.521 49.6872 306.601C51.5374 301.605 54.1286 298.805 57.0313 298.461L56.7956 296.475C52.7006 296.96 49.7168 300.762 47.8117 305.907C45.8781 311.129 44.9025 318.103 45.0444 325.683L47.0441 325.645ZM53.5434 329.605C50.4442 330.902 47.104 328.847 47.0441 325.645L45.0444 325.683C45.1337 330.452 50.0603 333.231 54.3155 331.45L53.5434 329.605ZM61.3217 326.349L53.5434 329.605L54.3155 331.45L62.0939 328.194L61.3217 326.349ZM70.3459 321.768L61.2553 326.38L62.1603 328.164L71.2509 323.551L70.3459 321.768ZM72.9363 316.788C73.2986 318.796 72.229 320.812 70.3459 321.768L71.2509 323.551C73.8573 322.229 75.4363 319.38 74.9045 316.433L72.9363 316.788ZM65.2342 300.613C68.5663 303.184 71.3904 308.224 72.9363 316.788L74.9045 316.433C73.3188 307.648 70.3524 302.036 66.4558 299.029L65.2342 300.613ZM64.4527 296.573L64.852 299.939L66.838 299.703L66.4387 296.338L64.4527 296.573Z" fill="black" mask="url(#path-34-inside-7_134_3)"/>
<mask id="path-36-inside-8_134_3" fill="white">
<path fill-rule="evenodd" clip-rule="evenodd" d="M46.8002 297.761L36.3341 299.002L36.3347 299.007C36.2005 299.02 36.0662 299.034 35.9316 299.05C26.6813 300.148 21.3343 317.078 22.151 337.144C22.3131 341.127 26.4441 343.543 30.1213 342.004L42.0388 337.016L54.6419 330.621C56.8866 329.482 58.2039 327.058 57.7926 324.575C55.8502 312.849 52.0691 305.721 47.3088 302.048L46.8002 297.761Z"/>
</mask>
<path fill-rule="evenodd" clip-rule="evenodd" d="M46.8002 297.761L36.3341 299.002L36.3347 299.007C36.2005 299.02 36.0662 299.034 35.9316 299.05C26.6813 300.148 21.3343 317.078 22.151 337.144C22.3131 341.127 26.4441 343.543 30.1213 342.004L42.0388 337.016L54.6419 330.621C56.8866 329.482 58.2039 327.058 57.7926 324.575C55.8502 312.849 52.0691 305.721 47.3088 302.048L46.8002 297.761Z" fill="#FF2480"/>
<path d="M36.3341 299.002L36.2163 298.009L35.2233 298.127L35.3411 299.12L36.3341 299.002ZM46.8002 297.761L47.7932 297.643L47.6754 296.65L46.6824 296.768L46.8002 297.761ZM36.3347 299.007L36.4313 300.002L37.448 299.903L37.3277 298.889L36.3347 299.007ZM22.151 337.144L21.1518 337.185L22.151 337.144ZM30.1213 342.004L30.5074 342.926L30.5074 342.926L30.1213 342.004ZM42.0388 337.016L42.4248 337.938L42.4586 337.924L42.4912 337.907L42.0388 337.016ZM54.6419 330.621L54.1894 329.729L54.1894 329.729L54.6419 330.621ZM57.7926 324.575L56.806 324.738L56.806 324.738L57.7926 324.575ZM47.3088 302.048L46.3158 302.166L46.3653 302.583L46.698 302.84L47.3088 302.048ZM36.452 299.995L46.918 298.754L46.6824 296.768L36.2163 298.009L36.452 299.995ZM37.3277 298.889L37.3272 298.885L35.3411 299.12L35.3416 299.125L37.3277 298.889ZM36.0494 300.043C36.177 300.028 36.3043 300.014 36.4313 300.002L36.238 298.011C36.0967 298.025 35.9553 298.04 35.8138 298.057L36.0494 300.043ZM23.1501 337.104C22.7453 327.156 23.8724 318.039 26.2107 311.312C28.58 304.497 32.0406 300.519 36.0494 300.043L35.8138 298.057C30.5723 298.679 26.7342 303.715 24.3216 310.656C21.8781 317.685 20.74 327.067 21.1518 337.185L23.1501 337.104ZM29.7352 341.081C26.6452 342.374 23.2815 340.331 23.1501 337.104L21.1518 337.185C21.3446 341.924 26.2431 344.711 30.5074 342.926L29.7352 341.081ZM41.6527 336.093L29.7352 341.081L30.5074 342.926L42.4248 337.938L41.6527 336.093ZM54.1894 329.729L41.5863 336.124L42.4912 337.907L55.0944 331.513L54.1894 329.729ZM56.806 324.738C57.1415 326.764 56.0701 328.775 54.1894 329.729L55.0944 331.513C57.7032 330.189 59.2663 327.353 58.7791 324.411L56.806 324.738ZM46.698 302.84C51.1673 306.288 54.8814 313.119 56.806 324.738L58.7791 324.411C56.8191 312.579 52.9709 305.153 47.9197 301.256L46.698 302.84ZM45.8071 297.879L46.3158 302.166L48.3019 301.93L47.7932 297.643L45.8071 297.879Z" fill="black" mask="url(#path-36-inside-8_134_3)"/>
<mask id="path-38-inside-9_134_3" fill="white">
<path fill-rule="evenodd" clip-rule="evenodd" d="M24.4867 316.728L16.2705 317.703L16.2709 317.706C16.1656 317.716 16.0601 317.728 15.9545 317.74C8.95681 318.57 4.80455 330.942 5.08527 345.936C5.15989 349.922 9.29328 352.339 12.9705 350.8L20.7488 347.544L29.8394 342.932C32.0842 341.793 33.4085 339.36 32.9614 336.883C31.3957 328.208 28.5004 322.882 24.8861 320.094L24.4867 316.728Z"/>
</mask>
<path fill-rule="evenodd" clip-rule="evenodd" d="M24.4867 316.728L16.2705 317.703L16.2709 317.706C16.1656 317.716 16.0601 317.728 15.9545 317.74C8.95681 318.57 4.80455 330.942 5.08527 345.936C5.15989 349.922 9.29328 352.339 12.9705 350.8L20.7488 347.544L29.8394 342.932C32.0842 341.793 33.4085 339.36 32.9614 336.883C31.3957 328.208 28.5004 322.882 24.8861 320.094L24.4867 316.728Z" fill="#FF2480"/>
<path d="M16.2705 317.703L16.1527 316.71L15.1597 316.827L15.2775 317.821L16.2705 317.703ZM24.4867 316.728L25.4798 316.61L25.362 315.617L24.3689 315.735L24.4867 316.728ZM16.2709 317.706L16.3676 318.701L17.3843 318.603L17.2639 317.588L16.2709 317.706ZM5.08527 345.936L6.0851 345.918L6.0851 345.918L5.08527 345.936ZM12.9705 350.8L13.3566 351.722L13.3566 351.722L12.9705 350.8ZM20.7488 347.544L21.1349 348.467L21.1686 348.453L21.2013 348.436L20.7488 347.544ZM29.8394 342.932L30.2919 343.824L30.2919 343.824L29.8394 342.932ZM32.9614 336.883L33.9455 336.706L33.9455 336.706L32.9614 336.883ZM24.8861 320.094L23.893 320.211L23.9425 320.629L24.2752 320.885L24.8861 320.094ZM16.3883 318.696L24.6046 317.721L24.3689 315.735L16.1527 316.71L16.3883 318.696ZM17.2639 317.588L17.2635 317.585L15.2775 317.821L15.2779 317.824L17.2639 317.588ZM16.0723 318.733C16.1709 318.722 16.2694 318.711 16.3676 318.701L16.1742 316.711C16.0618 316.722 15.9493 316.734 15.8366 316.747L16.0723 318.733ZM6.0851 345.918C5.94628 338.503 6.9065 331.794 8.72825 326.874C10.5785 321.877 13.1696 319.078 16.0723 318.733L15.8366 316.747C11.7416 317.233 8.75785 321.034 6.8527 326.18C4.91909 331.402 3.94354 338.375 4.08545 345.955L6.0851 345.918ZM12.5844 349.878C9.48522 351.175 6.14504 349.119 6.0851 345.918L4.08545 345.955C4.17475 350.725 9.10134 353.503 13.3566 351.722L12.5844 349.878ZM20.3627 346.622L12.5844 349.878L13.3566 351.722L21.1349 348.467L20.3627 346.622ZM29.3869 342.04L20.2963 346.653L21.2013 348.436L30.2919 343.824L29.3869 342.04ZM31.9773 337.061C32.3396 339.069 31.27 341.085 29.3869 342.04L30.2919 343.824C32.8983 342.501 34.4773 339.652 33.9455 336.706L31.9773 337.061ZM24.2752 320.885C27.6073 323.456 30.4315 328.496 31.9773 337.061L33.9455 336.706C32.3599 327.92 29.3934 322.308 25.4969 319.302L24.2752 320.885ZM23.4937 316.846L23.893 320.211L25.8791 319.976L25.4798 316.61L23.4937 316.846Z" fill="black" mask="url(#path-38-inside-9_134_3)"/>
<mask id="path-40-inside-10_134_3" fill="white">
<path fill-rule="evenodd" clip-rule="evenodd" d="M63.4808 326.711L63.5013 326.701L69.0423 324.135L77.7513 319.594C79.9616 318.442 81.2606 316.027 80.8107 313.575C78.0992 298.797 71.4156 295.747 63.8661 296.643C61.4453 296.93 59.3133 298.495 57.5663 301.03C53.8693 298.077 49.4588 297.445 44.7881 297.999C38.3063 298.768 33.4498 306.729 31.3574 318.235C28.8122 316.83 25.9291 316.557 22.9071 316.915C15.9706 317.738 11.405 329.053 11.4755 343.608C11.4952 347.687 15.794 350.098 19.4961 348.384L28.0833 344.408L36.7923 339.867C37.0973 339.708 37.3849 339.525 37.653 339.321C37.8997 339.243 38.1451 339.148 38.388 339.036L51.3816 333.02L63.4808 326.711Z"/>
</mask>
<path fill-rule="evenodd" clip-rule="evenodd" d="M63.4808 326.711L63.5013 326.701L69.0423 324.135L77.7513 319.594C79.9616 318.442 81.2606 316.027 80.8107 313.575C78.0992 298.797 71.4156 295.747 63.8661 296.643C61.4453 296.93 59.3133 298.495 57.5663 301.03C53.8693 298.077 49.4588 297.445 44.7881 297.999C38.3063 298.768 33.4498 306.729 31.3574 318.235C28.8122 316.83 25.9291 316.557 22.9071 316.915C15.9706 317.738 11.405 329.053 11.4755 343.608C11.4952 347.687 15.794 350.098 19.4961 348.384L28.0833 344.408L36.7923 339.867C37.0973 339.708 37.3849 339.525 37.653 339.321C37.8997 339.243 38.1451 339.148 38.388 339.036L51.3816 333.02L63.4808 326.711Z" fill="white"/>
<path d="M63.5013 326.701L63.0811 325.793L63.0589 325.803L63.0373 325.815L63.5013 326.701ZM63.4808 326.711L63.9431 327.598L63.9448 327.597L63.4808 326.711ZM69.0423 324.135L69.4625 325.043L69.4838 325.033L69.5046 325.022L69.0423 324.135ZM77.7513 319.594L78.2136 320.481L78.2136 320.481L77.7513 319.594ZM80.8107 313.575L81.7943 313.395L81.7943 313.395L80.8107 313.575ZM57.5663 301.03L56.9422 301.811L57.7807 302.481L58.3897 301.597L57.5663 301.03ZM31.3574 318.235L30.8742 319.111L32.0924 319.783L32.3413 318.414L31.3574 318.235ZM11.4755 343.608L10.4755 343.613L10.4755 343.613L11.4755 343.608ZM19.4961 348.384L19.0759 347.476L19.0759 347.476L19.4961 348.384ZM28.0833 344.408L28.5035 345.315L28.5248 345.305L28.5457 345.294L28.0833 344.408ZM36.7923 339.867L37.2546 340.753L37.2546 340.753L36.7923 339.867ZM37.653 339.321L37.3527 338.367L37.1865 338.419L37.0477 338.525L37.653 339.321ZM38.388 339.036L38.8082 339.943L38.8082 339.943L38.388 339.036ZM51.3816 333.02L51.8018 333.927L51.8231 333.917L51.844 333.907L51.3816 333.02ZM63.0373 325.815L63.0168 325.825L63.9448 327.597L63.9653 327.586L63.0373 325.815ZM68.6222 323.228L63.0811 325.793L63.9215 327.608L69.4625 325.043L68.6222 323.228ZM77.2889 318.707L68.58 323.248L69.5046 325.022L78.2136 320.481L77.2889 318.707ZM79.8272 313.755C80.1912 315.739 79.144 317.74 77.2889 318.707L78.2136 320.481C80.7793 319.143 82.3301 316.314 81.7943 313.395L79.8272 313.755ZM63.9839 297.636C67.5922 297.208 70.8363 297.736 73.5069 299.995C76.2084 302.279 78.4909 306.473 79.8272 313.755L81.7943 313.395C80.419 305.899 78.004 301.179 74.7984 298.468C71.562 295.731 67.6896 295.182 63.7483 295.65L63.9839 297.636ZM58.3897 301.597C60.038 299.206 61.9447 297.878 63.9839 297.636L63.7483 295.65C60.9459 295.982 58.5886 297.784 56.7429 300.462L58.3897 301.597ZM44.9059 298.993C49.4165 298.457 53.5248 299.081 56.9422 301.811L58.1904 300.248C54.2138 297.072 49.5011 296.433 44.6703 297.006L44.9059 298.993ZM32.3413 318.414C33.3727 312.742 35.0747 308.013 37.2657 304.635C39.4591 301.253 42.0667 299.329 44.9059 298.993L44.6703 297.006C41.0277 297.439 37.9661 299.88 35.5877 303.547C33.2069 307.218 31.4345 312.222 30.3736 318.056L32.3413 318.414ZM23.0249 317.908C25.9196 317.565 28.5722 317.84 30.8742 319.111L31.8407 317.36C29.0523 315.821 25.9385 315.549 22.7893 315.922L23.0249 317.908ZM12.4754 343.603C12.4407 336.417 13.5525 330.092 15.4853 325.5C17.4395 320.857 20.1028 318.255 23.0249 317.908L22.7893 315.922C18.7749 316.399 15.6871 319.865 13.642 324.724C11.5755 329.634 10.4398 336.243 10.4755 343.613L12.4754 343.603ZM19.0759 347.476C15.9483 348.924 12.4912 346.861 12.4754 343.603L10.4755 343.613C10.4992 348.513 15.6396 351.271 19.9162 349.291L19.0759 347.476ZM27.6632 343.5L19.0759 347.476L19.9162 349.291L28.5035 345.315L27.6632 343.5ZM36.3299 338.98L27.621 343.521L28.5457 345.294L37.2546 340.753L36.3299 338.98ZM37.0477 338.525C36.8244 338.695 36.5845 338.847 36.3299 338.98L37.2546 340.753C37.61 340.568 37.9455 340.355 38.2584 340.117L37.0477 338.525ZM37.9679 338.128C37.7638 338.223 37.5584 338.302 37.3527 338.367L37.9534 340.275C38.241 340.184 38.5264 340.074 38.8082 339.943L37.9679 338.128ZM50.9615 332.112L37.9679 338.128L38.8082 339.943L51.8018 333.927L50.9615 332.112ZM63.0185 325.825L50.9193 332.133L51.844 333.907L63.9431 327.598L63.0185 325.825Z" fill="black" mask="url(#path-40-inside-10_134_3)"/>
</svg>
